<svg id="_2d" data-name=" 2d" xmlns="http://www.w3.org/2000/svg" viewBox="0 0 53.66 43.1">
  <title>parllelogram_area</title>
  <g>
    <path id="Rectangle_2_copy_2" data-name="Rectangle 2 copy 2" d="M12,7.18H53l-9,33H2Z" transform="translate(-0.7 -6.18)" style="fill: #e5caff;stroke: #8560a8;stroke-width: 2px;fill-rule: evenodd"/>
    <g id="h" style="isolation: isolate">
      <g style="isolation: isolate">
        <path d="M20.67,25.44c0-.68-.35-.89-.89-.89a1.45,1.45,0,0,0-1.11.59v3h-1v-6h1v2.25a2.08,2.08,0,0,1,1.54-.7,1.24,1.24,0,0,1,1.4,1.37v3.08h-.94Z" transform="translate(-0.7 -6.18)" style="fill: #474747"/>
      </g>
    </g>
    <g id="b" style="isolation: isolate">
      <g style="isolation: isolate">
        <path d="M17.53,43.17h.95v2.26a1.72,1.72,0,0,1,1.39-.71A2,2,0,0,1,21.8,47c0,1.43-.82,2.28-1.93,2.28a1.75,1.75,0,0,1-1.39-.7v.59h-.95Zm2.07,5.27A1.27,1.27,0,0,0,20.83,47a1.29,1.29,0,0,0-1.23-1.45,1.41,1.41,0,0,0-1.12.6v1.72A1.41,1.41,0,0,0,19.6,48.44Z" transform="translate(-0.7 -6.18)" style="fill: #474747"/>
      </g>
    </g>
    <path d="M13,7.18v32" transform="translate(-0.7 -6.18)" style="fill: none;stroke: #8560a8;stroke-width: 2px"/>
  </g>
</svg>
