<svg id="_2d" data-name=" 2d" xmlns="http://www.w3.org/2000/svg" viewBox="0 0 53.79 50.56">
  <title>trapezium_area</title>
  <path id="Rectangle_2_copy" data-name="Rectangle 2 copy" d="M14.07,9.79h28l11,34h-51Z" transform="translate(-0.66 -2.81)" style="fill: #ffbdc0;stroke: #ff4e55;stroke-width: 2px;fill-rule: evenodd"/>
  <path d="M16.07,9.79v34" transform="translate(-0.66 -2.81)" style="fill: none;stroke: #ff4e55;stroke-width: 2px"/>
  <g id="h" style="isolation: isolate">
    <g style="isolation: isolate">
      <path d="M22.86,31c0-.67-.35-.88-.88-.88a1.45,1.45,0,0,0-1.12.59v3h-.95v-6h.95V30a2,2,0,0,1,1.54-.71,1.24,1.24,0,0,1,1.4,1.38v3.08h-.94Z" transform="translate(-0.66 -2.81)" style="fill: #474747"/>
    </g>
  </g>
  <g id="b1" style="isolation: isolate">
    <g style="isolation: isolate">
      <path d="M22.82,6.8a1.85,1.85,0,0,1-1.41.58A1.44,1.44,0,0,1,19.9,5.94a1.4,1.4,0,0,1,1.51-1.42,1.81,1.81,0,0,1,1.41.56V4.43c0-.5-.42-.81-1-.81a1.78,1.78,0,0,0-1.29.55l-.39-.66A2.64,2.64,0,0,1,22,2.81c1,0,1.81.41,1.81,1.58V7.27h-.94Zm0-1.18a1.28,1.28,0,0,0-1-.45.83.83,0,0,0-.93.78.83.83,0,0,0,.93.78,1.32,1.32,0,0,0,1-.45Z" transform="translate(-0.66 -2.81)" style="fill: #474747"/>
    </g>
  </g>
  <g id="b2" style="isolation: isolate">
    <g style="isolation: isolate">
      <path d="M20,47.26h.94v2.26a1.72,1.72,0,0,1,1.4-.71c1.11,0,1.92.88,1.92,2.29s-.82,2.28-1.92,2.28a1.75,1.75,0,0,1-1.4-.71v.6H20ZM22,52.54a1.46,1.46,0,0,0,0-2.89,1.44,1.44,0,0,0-1.12.59V52A1.4,1.4,0,0,0,22,52.54Z" transform="translate(-0.66 -2.81)" style="fill: #474747"/>
    </g>
  </g>
</svg>
